<?xml version="1.0" encoding="UTF-8" standalone="no"?>
<svg
   width="1000"
   height="442.61389"
   version="1.1"
   id="svg50"
   sodipodi:docname="Pulp_Fiction_Logo.svg"
   inkscape:version="1.1.1 (3bf5ae0d25, 2021-09-20)"
   xmlns:inkscape="http://www.inkscape.org/namespaces/inkscape"
   xmlns:sodipodi="http://sodipodi.sourceforge.net/DTD/sodipodi-0.dtd"
   xmlns="http://www.w3.org/2000/svg"
   xmlns:svg="http://www.w3.org/2000/svg">
  <defs
     id="defs54" />
  <sodipodi:namedview
     id="namedview52"
     pagecolor="#ffffff"
     bordercolor="#666666"
     borderopacity="1.0"
     inkscape:pageshadow="2"
     inkscape:pageopacity="0.0"
     inkscape:pagecheckerboard="0"
     showgrid="false"
     inkscape:zoom="0.40852273"
     inkscape:cx="674.38108"
     inkscape:cy="735.57719"
     inkscape:window-width="1920"
     inkscape:window-height="991"
     inkscape:window-x="-9"
     inkscape:window-y="-9"
     inkscape:window-maximized="1"
     inkscape:current-layer="svg50" />
  <path
     d="m 130.0643,22.37969 h 60.2765 v 32.12462 c -2.5707,1.40536 -4.1857,3.64739 -4.8433,6.72589 -0.5986,3.01169 -0.8965,7.19477 -0.8965,12.54869 v 67.46114 c 0,5.35412 0.1503,9.4036 0.4474,12.14698 0.3586,2.67641 1.2564,4.8186 2.6921,6.4253 1.4947,1.53823 3.7971,2.30883 6.9057,2.30883 3.5883,0 5.9204,-1.1046 6.9973,-3.31267 1.135,-2.20917 1.7039,-5.68957 1.7039,-10.44119 0,-1.53953 -0.029,-2.81056 -0.09,-3.81458 V 72.17257 c 0.061,-1.00383 0.09,-2.30901 0.09,-3.91515 0,-3.54701 -0.3883,-6.45833 -1.166,-8.73394 -0.7779,-2.34258 -2.332,-4.01552 -4.664,-5.01936 V 22.3795 h 58.84 v 32.12462 c -3.1691,2.14164 -5.1722,5.08635 -6.0092,8.83414 -0.7779,3.74796 -1.1662,8.83431 -1.1662,15.25924 v 65.85426 c 0,6.49228 -0.5378,12.8504 -1.6148,19.07474 -1.0756,6.15681 -3.5277,12.24774 -7.3546,18.27038 -3.827,5.95678 -9.448,10.64123 -16.8633,14.05464 -7.0566,3.61455 -16.893,5.42128 -29.5119,5.42128 -6.159,0 -12.1978,-0.5021 -18.1182,-1.50613 -5.9203,-1.00384 -10.6141,-2.30864 -14.0824,-3.91515 -10.5845,-5.35429 -17.5507,-12.08017 -20.9001,-20.17693 -3.3497,-8.16484 -5.0239,-16.8316 -5.0239,-25.99954 v -3.31378 c 0.061,-1.00401 0.09,-2.17448 0.09,-3.51287 V 72.67634 c 0.059,-0.80306 0.09,-1.94087 0.09,-3.41323 0,-7.22799 -1.9426,-12.14716 -5.8301,-14.75714 z"
     id="path2179"
     style="opacity:1;fill:#e21502;fill-opacity:1;stroke:none;stroke-width:1.27083;stroke-linejoin:round" />
  <path
     d="m 673.5007,371.59259 v -91.31626 c 0,-11.24564 1.4984,-21.05358 4.4919,-29.42451 3.0694,-8.37069 7.6355,-15.30369 13.6984,-20.80015 6.1389,-5.58014 13.9616,-9.76549 23.4669,-12.55558 9.5069,-2.7903 20.7739,-4.18534 33.7992,-4.18534 17.0665,0 30.9165,2.2828 41.5453,6.84837 10.6308,4.5658 18.3402,11.58389 23.1309,21.05356 4.7906,9.4699 7.1869,21.81449 7.1869,37.03381 v 99.43189 c 0,14.54441 -2.322,26.5927 -6.9623,36.14535 -4.5661,9.55546 -12.0887,16.74209 -22.5692,21.56132 -10.4804,4.81921 -24.5909,7.22883 -42.3319,7.22883 -17.7414,0 -32.1893,-2.66232 -43.3435,-7.99023 -11.152,-5.32627 -19.3124,-13.18946 -24.4776,-23.58976 -5.0894,-10.48472 -7.6356,-23.6343 -7.6356,-39.44364 z m 86.2345,2.02985 v -93.34635 c 0,-4.90409 -0.1881,-8.53995 -0.5618,-10.90737 -0.3745,-2.36741 -1.3093,-4.18534 -2.8079,-5.45357 -1.4209,-1.26797 -3.8912,-1.90255 -7.4096,-1.90255 -4.4174,0 -7.6355,1.5221 -9.6569,4.56582 -1.9454,2.95955 -2.9192,7.52513 -2.9192,13.69767 v 93.34635 c 0,6.08766 0.8605,10.99199 2.5818,14.71225 1.797,3.72049 5.128,5.58062 9.9943,5.58062 4.1917,0 7.0367,-1.69064 8.5334,-5.07357 1.4967,-3.38128 2.2459,-8.45485 2.2459,-15.2193 z"
     id="path2181"
     style="opacity:1;fill:#e21502;fill-opacity:1;stroke:none;stroke-width:1.59816;stroke-linejoin:round" />
  <path
     d="m 264.5129,22.37969 h 58.8422 v 32.12462 c -2.3321,1.00383 -3.8876,2.67696 -4.6653,5.01936 -0.7766,2.34241 -1.1662,5.45431 -1.1662,9.33624 v 3.71438 c 0.061,1.13781 0.09,2.61015 0.09,4.41706 v 83.52439 c 5.6805,0 9.7177,-1.00384 12.1089,-3.01188 2.452,-2.00675 3.6773,-6.35813 3.6773,-13.05044 V 112.3288 h 44.4912 v 85.12941 H 263.0774 v -30.51773 c 2.3927,-1.07101 3.947,-2.61053 4.6654,-4.61858 0.7764,-2.00675 1.166,-4.44954 1.166,-7.32745 0,-1.27233 -0.031,-2.30975 -0.09,-3.11264 V 70.5655 c 0.059,-1.07063 0.09,-2.04126 0.09,-2.91113 0.058,-0.93722 0.09,-2.07465 0.09,-3.41341 0,-4.88576 -1.4948,-8.13144 -4.4847,-9.73777 z"
     id="path2183"
     style="opacity:1;fill:#e21502;fill-opacity:1;stroke:none;stroke-width:1.27083;stroke-linejoin:round" />
  <path
     d="m 390.1931,22.37969 h 73.1931 c 5.981,0 11.9309,0.90345 17.8499,2.71054 5.9797,1.80691 11.3919,4.61783 16.2352,8.43278 4.8446,3.81477 8.7308,8.86753 11.6614,15.15867 2.9898,6.22398 4.4848,13.51895 4.4848,21.88401 v 28.91272 c 0,32.12461 -15.7863,48.18785 -47.3597,48.18785 h -20.0932 c 0,2.07373 -0.029,3.64684 -0.09,4.71784 0,1.00384 -0.029,2.14221 -0.09,3.41342 0,2.4762 0.2696,4.41726 0.8074,5.82263 0.5985,1.405 1.8238,2.64263 3.6773,3.71382 v 32.12462 h -60.2764 v -32.12462 c 2.3925,-1.13688 3.9468,-2.70999 4.6639,-4.71784 0.7777,-2.00804 1.166,-4.61858 1.166,-7.83068 0,-1.47235 -0.029,-2.6764 -0.09,-3.61324 V 70.76905 c 0.059,-0.93703 0.09,-2.07484 0.09,-3.41322 0,-2.87792 -0.3883,-5.22033 -1.166,-7.02742 -0.7764,-1.80691 -2.3319,-3.21246 -4.6639,-4.2163 z m 55.9715,38.55028 c 6.5782,0 11.0926,1.10422 13.5447,3.31267 2.4519,2.20843 3.6772,6.4585 3.6772,12.74946 v 19.27515 c 0,9.90494 -4.2447,14.85751 -12.7371,14.85751 -0.9558,0 -2.4505,-0.1336 -4.4848,-0.40135 z"
     fill-rule="evenodd"
     id="path2185"
     style="opacity:1;fill:#e21502;fill-opacity:1;stroke:none;stroke-width:1.27083;stroke-linejoin:round" />
  <path
     d="m 0,217.34373 h 143.7241 v 77.11271 H 89.828 v -14.20496 c 0,-4.90409 -0.9348,-8.41313 -2.8063,-10.52691 -1.797,-2.11377 -4.3417,-3.4666 -7.6357,-4.05851 -3.2193,-0.59168 -6.3259,-1.14141 -9.3194,-1.64846 v 42.61535 h 37.7272 v 42.613 H 70.0666 v 28.40947 c 0,3.46779 0.074,6.21496 0.2248,8.24458 0.1516,2.03006 0.5992,4.05805 1.3468,6.08789 0.8233,2.02986 2.0956,4.01541 3.8186,5.96039 v 40.58527 H 1.798 v -40.58527 c 4.7906,-3.6354 7.1866,-9.72308 7.1866,-18.26301 V 274.16309 c 0,-8.53971 -2.9951,-13.95085 -8.9839,-16.23386 z"
     id="path2187"
     style="opacity:1;fill:#e21502;fill-opacity:1;stroke:none;stroke-width:1.59816;stroke-linejoin:round" />
  <path
     d="m 150.2708,217.34373 h 77.2522 v 38.55517 c -3.2194,2.7057 -5.2409,5.74989 -6.0643,9.13187 -0.7474,3.38199 -1.1222,7.77878 -1.1222,13.19016 v 97.40417 c 0,3.97319 0.149,7.31369 0.4489,10.01843 0.3004,2.62177 0.6362,4.56653 1.0106,5.83498 0.449,1.26844 1.0852,2.5369 1.9087,3.80534 0.8991,1.26682 2.1718,2.8318 3.8183,4.69218 v 38.55518 h -77.2522 v -38.55518 c 2.9194,-2.62176 4.8648,-5.32651 5.8386,-8.11753 0.9735,-2.87423 1.4596,-6.21497 1.4596,-10.01843 0,-1.77715 -0.037,-3.25588 -0.1124,-4.43947 V 275.04781 c 0.076,-1.01482 0.1124,-2.24084 0.1124,-3.67807 0,-3.46684 -0.4861,-6.42617 -1.4596,-8.87798 -0.9738,-2.45205 -2.9192,-4.65044 -5.8386,-6.5952 z"
     id="path2189"
     style="opacity:1;fill:#e21502;fill-opacity:1;stroke:none;stroke-width:1.59816;stroke-linejoin:round" />
  <path
     d="m 326.7217,298.4533 v -24.35163 c 0,-4.05828 -1.009,-7.27125 -3.0305,-9.63867 -1.9474,-2.36765 -4.2677,-3.55124 -6.9625,-3.55124 -3.0693,0 -5.764,1.52209 -8.0842,4.56581 -2.3202,2.95933 -3.4813,7.18711 -3.4813,12.68287 v 101.46199 c 0,4.64975 1.1611,8.37024 3.4813,11.16125 2.3202,2.70475 5.0149,4.05782 8.0842,4.05782 2.7708,0 5.1281,-1.26821 7.0738,-3.80511 1.9473,-2.62012 2.9192,-6.42524 2.9192,-11.41396 v -34.49735 h 61.0831 v 71.02245 c -4.2656,7.69535 -13.2494,13.69816 -26.9468,18.01032 -13.6227,4.22755 -28.5959,6.34202 -44.914,6.34202 -22.2317,0 -40.0845,-5.3701 -53.5591,-16.10776 -13.3997,-10.82225 -20.0987,-27.77651 -20.0987,-50.85758 v -91.31626 c 0,-11.6683 1.3463,-21.8145 4.0413,-30.43955 2.7708,-8.70897 6.888,-15.89583 12.3518,-21.56084 5.5399,-5.74964 12.4633,-10.01961 20.7721,-12.8097 8.3088,-2.7903 18.0791,-4.18534 29.3068,-4.18534 16.3933,0 30.7651,1.73331 43.1159,5.19992 12.4262,3.38222 24.4034,9.0892 35.9292,17.12186 v 62.90682 z"
     id="path2191"
     style="opacity:1;fill:#e21502;fill-opacity:1;stroke:none;stroke-width:1.59816;stroke-linejoin:round" />
  <path
     d="m 400.058,217.34373 h 168.8757 v 99.43425 h -44.914 V 278.2228 c 0,-3.04396 -0.5248,-5.5804 -1.5728,-7.60977 -0.9719,-2.11377 -3.4421,-3.63564 -7.4093,-4.56582 v 109.58001 c 0,13.10505 2.3944,20.54579 7.1852,22.32106 v 40.58527 h -75.4544 v -38.55518 c 4.8649,-2.19934 7.298,-8.28701 7.298,-18.26326 0,-2.02961 -0.037,-3.55054 -0.1124,-4.56651 V 266.04721 c -3.9672,0 -6.4762,1.26846 -7.524,3.80488 -0.9722,2.53692 -1.4598,6.00329 -1.4598,10.40009 v 36.52744 h -44.9141 z"
     id="path2193"
     style="opacity:1;fill:#e21502;fill-opacity:1;stroke:none;stroke-width:1.59816;stroke-linejoin:round" />
  <path
     d="m 579.6221,217.34373 h 77.2522 v 38.55517 c -3.2197,2.7057 -5.2412,5.74989 -6.0646,9.13187 -0.7475,3.38199 -1.1222,7.77878 -1.1222,13.19016 v 97.40417 c 0,3.97319 0.1516,7.31369 0.4488,10.01843 0.2988,2.62177 0.6363,4.56653 1.011,5.83498 0.4487,1.26844 1.0848,2.5369 1.9082,3.80534 0.8978,1.26682 2.1718,2.8318 3.8188,4.69218 v 38.55518 h -77.2522 v -38.55518 c 2.9191,-2.62176 4.8648,-5.32651 5.8382,-8.11753 0.9721,-2.87423 1.4595,-6.21497 1.4595,-10.01843 0,-1.77715 -0.036,-3.25588 -0.1122,-4.43947 V 275.04781 c 0.076,-1.01482 0.1122,-2.24084 0.1122,-3.67807 0,-3.46684 -0.4874,-6.42617 -1.4595,-8.87798 -0.9734,-2.45205 -2.9191,-4.65044 -5.8382,-6.5952 z"
     id="path2195"
     style="opacity:1;fill:#e21502;fill-opacity:1;stroke:none;stroke-width:1.59816;stroke-linejoin:round" />
  <path
     d="m 841.9039,217.34373 h 66.4694 l 34.1363,99.43425 V 278.2228 c 0.069,-1.35284 0.1177,-2.57886 0.1177,-3.67807 0.069,-1.18382 0.1015,-2.62082 0.1015,-4.31217 0,-6.42594 -1.873,-11.2032 -5.6021,-14.33154 V 217.34583 H 1000 v 38.55519 c -3.2906,2.79031 -5.3155,5.70745 -6.0579,8.75117 -0.7595,2.95931 -1.1306,7.48269 -1.1306,13.57061 V 438.53379 H 933.5317 L 895.802,339.09952 v 34.49738 c 0,4.31215 0.1175,7.73587 0.3377,10.27278 0.2193,2.53667 0.8604,4.86165 1.9067,6.97612 1.1304,2.11307 2.7672,3.80512 4.9439,5.07357 v 42.61301 h -61.0857 v -40.58527 c 4.8649,-3.29666 7.298,-8.96191 7.298,-16.9948 0,-1.69064 -0.037,-3.04371 -0.1125,-4.05783 v -100.4493 c 0.076,-1.18383 0.1125,-2.66349 0.1125,-4.43922 0,-3.63563 -0.4859,-6.72179 -1.4597,-9.25822 -0.8976,-2.62129 -2.8449,-4.90408 -5.8383,-6.84884 z"
     id="path2197"
     style="opacity:1;fill:#e21502;fill-opacity:1;stroke:none;stroke-width:1.59816;stroke-linejoin:round" />
  <path
     d="m 0,22.37969 h 73.193 c 5.9809,0 11.9311,0.90345 17.8499,2.71054 5.9799,1.80691 11.3918,4.61783 16.2354,8.43278 4.8444,3.81477 8.7308,8.86753 11.6612,15.15867 2.9899,6.22398 4.4849,13.51895 4.4849,21.88401 v 28.91272 c 0,32.12461 -15.7862,48.18785 -47.3597,48.18785 H 55.9715 c 0,2.07373 -0.029,3.64684 -0.09,4.71784 0,1.00384 -0.029,2.14221 -0.09,3.41342 0,2.4762 0.2698,4.41726 0.8076,5.82263 0.5985,1.405 1.8238,2.64263 3.6773,3.71382 v 32.12462 H 0 v -32.12462 c 2.3927,-1.13688 3.947,-2.70999 4.6641,-4.71784 0.7777,-2.00804 1.166,-4.61858 1.166,-7.83068 0,-1.47235 -0.029,-2.6764 -0.09,-3.61324 V 70.76905 c 0.058,-0.93703 0.09,-2.07484 0.09,-3.41322 0,-2.87792 -0.3883,-5.22033 -1.166,-7.02742 C 3.8877,58.5215 2.3322,57.11595 0,56.11211 Z m 55.9715,38.55028 c 6.5782,0 11.0926,1.10422 13.5446,3.31267 2.4521,2.20843 3.6773,6.4585 3.6773,12.74946 v 19.27515 c 0,9.90494 -4.2449,14.85751 -12.7371,14.85751 -0.9557,0 -2.4507,-0.1336 -4.4848,-0.40135 z"
     fill-rule="evenodd"
     id="path2199"
     style="opacity:1;fill:#e21502;fill-opacity:1;stroke:none;stroke-width:1.27083;stroke-linejoin:round" />
  <path
     d="m 130.0643,1.9e-4 h 60.2765 v 32.12462 c -2.5707,1.40536 -4.1857,3.64739 -4.8433,6.72589 -0.5986,3.01169 -0.8965,7.19477 -0.8965,12.54869 v 67.46114 c 0,5.35412 0.1503,9.4036 0.4474,12.14698 0.3586,2.67641 1.2564,4.8186 2.6921,6.4253 1.4947,1.53823 3.7971,2.30883 6.9057,2.30883 3.5883,0 5.9204,-1.1046 6.9973,-3.31266 1.135,-2.20918 1.7039,-5.68958 1.7039,-10.4412 0,-1.53953 -0.029,-2.81056 -0.09,-3.81458 V 49.79307 c 0.061,-1.00383 0.09,-2.30901 0.09,-3.91515 0,-3.54701 -0.3883,-6.45832 -1.166,-8.73393 -0.7779,-2.34259 -2.332,-4.01553 -4.664,-5.01937 V 0 h 58.84 v 32.12462 c -3.1691,2.14164 -5.1722,5.08635 -6.0092,8.83414 -0.7779,3.74797 -1.1662,8.83431 -1.1662,15.25924 v 65.85426 c 0,6.49228 -0.5378,12.8504 -1.6148,19.07474 -1.0756,6.15681 -3.5277,12.24774 -7.3546,18.27038 -3.827,5.95678 -9.448,10.64123 -16.8633,14.05464 -7.0566,3.61456 -16.893,5.42128 -29.5119,5.42128 -6.159,0 -12.1978,-0.5021 -18.1182,-1.50613 -5.9203,-1.00383 -10.6141,-2.30863 -14.0824,-3.91515 -10.5845,-5.35429 -17.5507,-12.08017 -20.9001,-20.17692 -3.3497,-8.16485 -5.0239,-16.83161 -5.0239,-25.99955 v -3.31377 c 0.061,-1.00402 0.09,-2.17449 0.09,-3.51288 V 50.29684 c 0.059,-0.80306 0.09,-1.94087 0.09,-3.41322 0,-7.228 -1.9426,-12.14717 -5.8301,-14.75714 z"
     id="path26-9-6"
     style="opacity:1;fill:#fba102;fill-opacity:1;stroke:none;stroke-width:1.27083;stroke-linejoin:round" />
  <path
     d="m 264.5129,1.9e-4 h 58.8422 v 32.12462 c -2.3321,1.00384 -3.8876,2.67696 -4.6653,5.01936 -0.7766,2.34241 -1.1662,5.45431 -1.1662,9.33624 v 3.71438 c 0.061,1.13781 0.09,2.61015 0.09,4.41706 v 83.52439 c 5.6805,0 9.7177,-1.00384 12.1089,-3.01188 2.452,-2.00674 3.6773,-6.35813 3.6773,-13.05043 V 89.9493 h 44.4912 v 85.12941 H 263.0774 v -30.51773 c 2.3927,-1.07101 3.947,-2.61053 4.6654,-4.61858 0.7764,-2.00675 1.166,-4.44954 1.166,-7.32745 0,-1.27233 -0.031,-2.30975 -0.09,-3.11264 V 48.186 c 0.059,-1.07063 0.09,-2.04126 0.09,-2.91113 0.058,-0.93721 0.09,-2.07464 0.09,-3.41341 0,-4.88576 -1.4948,-8.13144 -4.4847,-9.73777 z"
     id="path30-4-8"
     style="opacity:1;fill:#fba102;fill-opacity:1;stroke:none;stroke-width:1.27083;stroke-linejoin:round" />
  <path
     d="m 390.1931,1.9e-4 h 73.1931 c 5.981,0 11.9309,0.90345 17.8499,2.71054 5.9797,1.80691 11.3919,4.61783 16.2352,8.43279 4.8446,3.81476 8.7308,8.86753 11.6614,15.15866 2.9898,6.22398 4.4848,13.51895 4.4848,21.88402 v 28.91271 c 0,32.12461 -15.7863,48.18785 -47.3597,48.18785 h -20.0932 c 0,2.07373 -0.029,3.64684 -0.09,4.71784 0,1.00384 -0.029,2.14221 -0.09,3.41342 0,2.4762 0.2696,4.41726 0.8074,5.82263 0.5985,1.405 1.8238,2.64263 3.6773,3.71382 v 32.12462 h -60.2764 v -32.12462 c 2.3925,-1.13688 3.9468,-2.70999 4.6639,-4.71784 0.7777,-2.00804 1.166,-4.61858 1.166,-7.83068 0,-1.47235 -0.029,-2.67639 -0.09,-3.61324 V 48.38956 c 0.059,-0.93704 0.09,-2.07485 0.09,-3.41323 0,-2.87792 -0.3883,-5.22033 -1.166,-7.02742 -0.7764,-1.80691 -2.3319,-3.21246 -4.6639,-4.2163 z m 55.9715,38.55028 c 6.5782,0 11.0926,1.10422 13.5447,3.31267 2.4519,2.20844 3.6772,6.4585 3.6772,12.74946 v 19.27515 c 0,9.90495 -4.2447,14.85751 -12.7371,14.85751 -0.9558,0 -2.4505,-0.1336 -4.4848,-0.40134 z"
     fill-rule="evenodd"
     id="path32-8-7"
     style="opacity:1;fill:#fba102;fill-opacity:1;stroke:none;stroke-width:1.27083;stroke-linejoin:round" />
  <path
     d="m 0,1.9e-4 h 73.193 c 5.9809,0 11.9311,0.90345 17.8499,2.71054 5.9799,1.80691 11.3918,4.61783 16.2354,8.43279 4.8444,3.81476 8.7308,8.86753 11.6612,15.15866 2.9899,6.22398 4.4849,13.51895 4.4849,21.88402 v 28.91271 c 0,32.12461 -15.7862,48.18785 -47.3597,48.18785 H 55.9715 c 0,2.07373 -0.029,3.64684 -0.09,4.71784 0,1.00384 -0.029,2.14221 -0.09,3.41342 0,2.4762 0.2698,4.41726 0.8076,5.82263 0.5985,1.405 1.8238,2.64263 3.6773,3.71382 v 32.12462 H 0 v -32.12462 c 2.3927,-1.13688 3.947,-2.70999 4.6641,-4.71784 0.7777,-2.00804 1.166,-4.61858 1.166,-7.83068 0,-1.47235 -0.029,-2.67639 -0.09,-3.61324 V 48.38956 c 0.058,-0.93704 0.09,-2.07485 0.09,-3.41323 0,-2.87792 -0.3883,-5.22033 -1.166,-7.02742 C 3.8877,36.142 2.3322,34.73645 0,33.73261 Z m 55.9715,38.55028 c 6.5782,0 11.0926,1.10422 13.5446,3.31267 2.4521,2.20844 3.6773,6.4585 3.6773,12.74946 v 19.27515 c 0,9.90495 -4.2449,14.85751 -12.7371,14.85751 -0.9557,0 -2.4507,-0.1336 -4.4848,-0.40134 z"
     fill-rule="evenodd"
     id="path46-7-4"
     style="opacity:1;fill:#fba102;fill-opacity:1;stroke:none;stroke-width:1.27083;stroke-linejoin:round" />
  <path
     d="m 0,194.96423 h 143.7241 v 77.11271 H 89.828 v -14.20496 c 0,-4.90409 -0.9348,-8.41313 -2.8063,-10.52691 -1.797,-2.11377 -4.3417,-3.4666 -7.6357,-4.05851 -3.2193,-0.59168 -6.3259,-1.14141 -9.3194,-1.64846 v 42.61535 h 37.7272 v 42.613 H 70.0666 v 28.40947 c 0,3.46779 0.074,6.21496 0.2248,8.24458 0.1516,2.03007 0.5992,4.05805 1.3468,6.08789 0.8233,2.02986 2.0956,4.01541 3.8186,5.9604 v 40.58526 H 1.798 v -40.58526 c 4.7906,-3.6354 7.1866,-9.72308 7.1866,-18.26302 V 251.78359 c 0,-8.53971 -2.9951,-13.95084 -8.9839,-16.23386 z"
     id="path34-0-6"
     style="opacity:1;fill:#fba102;fill-opacity:1;stroke:none;stroke-width:1.59816;stroke-linejoin:round" />
  <path
     d="m 150.2708,194.96423 h 77.2522 v 38.55517 c -3.2194,2.7057 -5.2409,5.74989 -6.0643,9.13187 -0.7474,3.38199 -1.1222,7.77878 -1.1222,13.19016 v 97.40417 c 0,3.97319 0.149,7.31369 0.4489,10.01843 0.3004,2.62178 0.6362,4.56653 1.0106,5.83498 0.449,1.26844 1.0852,2.5369 1.9087,3.80534 0.8991,1.26682 2.1718,2.83181 3.8183,4.69218 v 38.55518 h -77.2522 v -38.55518 c 2.9194,-2.62176 4.8648,-5.32651 5.8386,-8.11753 0.9735,-2.87423 1.4596,-6.21497 1.4596,-10.01843 0,-1.77715 -0.037,-3.25588 -0.1124,-4.43947 V 252.66831 c 0.076,-1.01481 0.1124,-2.24083 0.1124,-3.67807 0,-3.46684 -0.4861,-6.42617 -1.4596,-8.87798 -0.9738,-2.45205 -2.9192,-4.65044 -5.8386,-6.59519 z"
     id="path36-9-6"
     style="opacity:1;fill:#fba102;fill-opacity:1;stroke:none;stroke-width:1.59816;stroke-linejoin:round" />
  <path
     d="m 326.7217,276.0738 v -24.35163 c 0,-4.05828 -1.009,-7.27125 -3.0305,-9.63867 -1.9474,-2.36765 -4.2677,-3.55124 -6.9625,-3.55124 -3.0693,0 -5.764,1.52209 -8.0842,4.56581 -2.3202,2.95933 -3.4813,7.18711 -3.4813,12.68287 v 101.462 c 0,4.64974 1.1611,8.37023 3.4813,11.16125 2.3202,2.70474 5.0149,4.05781 8.0842,4.05781 2.7708,0 5.1281,-1.26821 7.0738,-3.80511 1.9473,-2.62012 2.9192,-6.42524 2.9192,-11.41395 v -34.49736 h 61.0831 v 71.02246 c -4.2656,7.69534 -13.2494,13.69815 -26.9468,18.01031 -13.6227,4.22755 -28.5959,6.34202 -44.914,6.34202 -22.2317,0 -40.0845,-5.3701 -53.5591,-16.10776 -13.3997,-10.82225 -20.0987,-27.77651 -20.0987,-50.85758 v -91.31626 c 0,-11.66829 1.3463,-21.8145 4.0413,-30.43954 2.7708,-8.70897 6.888,-15.89584 12.3518,-21.56085 5.5399,-5.74964 12.4633,-10.0196 20.7721,-12.8097 8.3088,-2.7903 18.0791,-4.18534 29.3068,-4.18534 16.3933,0 30.7651,1.73331 43.1159,5.19992 12.4262,3.38222 24.4034,9.0892 35.9292,17.12186 v 62.90682 z"
     id="path38-3-4"
     style="opacity:1;fill:#fba102;fill-opacity:1;stroke:none;stroke-width:1.59816;stroke-linejoin:round" />
  <path
     d="m 400.058,194.96423 h 168.8757 v 99.43425 h -44.914 V 255.8433 c 0,-3.04396 -0.5248,-5.58039 -1.5728,-7.60977 -0.9719,-2.11377 -3.4421,-3.63563 -7.4093,-4.56582 v 109.58001 c 0,13.10505 2.3944,20.54579 7.1852,22.32107 v 40.58526 h -75.4544 v -38.55518 c 4.8649,-2.19934 7.298,-8.28701 7.298,-18.26326 0,-2.02961 -0.037,-3.55053 -0.1124,-4.56651 V 243.66771 c -3.9672,0 -6.4762,1.26846 -7.524,3.80489 -0.9722,2.53691 -1.4598,6.00328 -1.4598,10.40008 v 36.52744 h -44.9141 z"
     id="path40-2-6"
     style="opacity:1;fill:#fba102;fill-opacity:1;stroke:none;stroke-width:1.59816;stroke-linejoin:round" />
  <path
     d="m 579.6221,194.96423 h 77.2522 v 38.55517 c -3.2197,2.7057 -5.2412,5.74989 -6.0646,9.13187 -0.7475,3.38199 -1.1222,7.77878 -1.1222,13.19016 v 97.40417 c 0,3.97319 0.1516,7.31369 0.4488,10.01843 0.2988,2.62178 0.6363,4.56653 1.011,5.83498 0.4487,1.26844 1.0848,2.5369 1.9082,3.80534 0.8978,1.26682 2.1718,2.83181 3.8188,4.69218 v 38.55518 h -77.2522 v -38.55518 c 2.9191,-2.62176 4.8648,-5.32651 5.8382,-8.11753 0.9721,-2.87423 1.4595,-6.21497 1.4595,-10.01843 0,-1.77715 -0.036,-3.25588 -0.1122,-4.43947 V 252.66831 c 0.076,-1.01481 0.1122,-2.24083 0.1122,-3.67807 0,-3.46684 -0.4874,-6.42617 -1.4595,-8.87798 -0.9734,-2.45205 -2.9191,-4.65044 -5.8382,-6.59519 z"
     id="path42-4-5"
     style="opacity:1;fill:#fba102;fill-opacity:1;stroke:none;stroke-width:1.59816;stroke-linejoin:round" />
  <path
     d="m 841.9039,194.96423 h 66.4694 l 34.1363,99.43425 V 255.8433 c 0.069,-1.35284 0.1177,-2.57886 0.1177,-3.67807 0.069,-1.18382 0.1015,-2.62082 0.1015,-4.31217 0,-6.42594 -1.873,-11.20319 -5.6021,-14.33154 V 194.96633 H 1000 v 38.55519 c -3.2906,2.79031 -5.3155,5.70745 -6.0579,8.75117 -0.7595,2.95931 -1.1306,7.48269 -1.1306,13.57061 V 416.15429 H 933.5317 L 895.802,316.72003 v 34.49737 c 0,4.31215 0.1175,7.73588 0.3377,10.27278 0.2193,2.53667 0.8604,4.86165 1.9067,6.97612 1.1304,2.11307 2.7672,3.80512 4.9439,5.07357 v 42.61301 h -61.0857 v -40.58527 c 4.8649,-3.29666 7.298,-8.96191 7.298,-16.9948 0,-1.69064 -0.037,-3.04371 -0.1125,-4.05783 V 254.06569 c 0.076,-1.18384 0.1125,-2.6635 0.1125,-4.43923 0,-3.63563 -0.4859,-6.72178 -1.4597,-9.25821 -0.8976,-2.62129 -2.8449,-4.90409 -5.8383,-6.84885 z"
     id="path44-1-4"
     style="opacity:1;fill:#fba102;fill-opacity:1;stroke:none;stroke-width:1.59816;stroke-linejoin:round" />
  <path
     d="m 673.5007,349.21309 v -91.31626 c 0,-11.24564 1.4984,-21.05357 4.4919,-29.42451 3.0694,-8.37069 7.6355,-15.30369 13.6984,-20.80015 6.1389,-5.58014 13.9616,-9.76549 23.4669,-12.55558 9.5069,-2.7903 20.7739,-4.18534 33.7992,-4.18534 17.0665,0 30.9165,2.2828 41.5453,6.84837 10.6308,4.5658 18.3402,11.5839 23.1309,21.05356 4.7906,9.4699 7.1869,21.8145 7.1869,37.03381 v 99.43189 c 0,14.54441 -2.322,26.5927 -6.9623,36.14535 -4.5661,9.55546 -12.0887,16.74209 -22.5692,21.56132 -10.4804,4.81922 -24.5909,7.22883 -42.3319,7.22883 -17.7414,0 -32.1893,-2.66232 -43.3435,-7.99023 -11.152,-5.32627 -19.3124,-13.18946 -24.4776,-23.58976 -5.0894,-10.48471 -7.6356,-23.6343 -7.6356,-39.44364 z m 86.2345,2.02985 v -93.34635 c 0,-4.90409 -0.1881,-8.53994 -0.5618,-10.90737 -0.3745,-2.36741 -1.3093,-4.18534 -2.8079,-5.45356 -1.4209,-1.26798 -3.8912,-1.90256 -7.4096,-1.90256 -4.4174,0 -7.6355,1.5221 -9.6569,4.56582 -1.9454,2.95955 -2.9192,7.52513 -2.9192,13.69767 v 93.34635 c 0,6.08767 0.8605,10.99199 2.5818,14.71225 1.797,3.72049 5.128,5.58062 9.9943,5.58062 4.1917,0 7.0367,-1.69064 8.5334,-5.07357 1.4967,-3.38128 2.2459,-8.45485 2.2459,-15.2193 z"
     id="path28-5-9"
     style="opacity:1;fill:#fba102;fill-opacity:1;stroke:none;stroke-width:1.59816;stroke-linejoin:round" />
</svg>
